<!-- Rwanda Flag SVG Logo -->
<svg width="100" height="100" viewBox="0 0 100 100" xmlns="http://www.w3.org/2000/svg">
  <!-- Background circle -->
  <circle cx="50" cy="50" r="48" fill="#0066CC" stroke="#FFFFFF" stroke-width="2"/>
  
  <!-- Rwanda flag stripes -->
  <rect x="20" y="35" width="60" height="8" fill="#0066CC"/>
  <rect x="20" y="43" width="60" height="8" fill="#FFCC00"/>
  <rect x="20" y="51" width="60" height="8" fill="#00AA44"/>
  
  <!-- Sun symbol -->
  <circle cx="35" cy="42" r="6" fill="#FFCC00"/>
  <g stroke="#FFCC00" stroke-width="1" fill="none">
    <line x1="35" y1="30" x2="35" y2="32"/>
    <line x1="35" y1="52" x2="35" y2="54"/>
    <line x1="23" y1="42" x2="25" y2="42"/>
    <line x1="45" y1="42" x2="47" y2="42"/>
    <line x1="27.5" y1="34.5" x2="28.8" y2="35.8"/>
    <line x1="41.2" y1="48.2" x2="42.5" y2="49.5"/>
    <line x1="42.5" y1="34.5" x2="41.2" y2="35.8"/>
    <line x1="28.8" y1="48.2" x2="27.5" y2="49.5"/>
  </g>
  
  <!-- Chat bubble symbol -->
  <path d="M55 65 L75 65 Q78 65 78 68 L78 75 Q78 78 75 78 L65 78 L60 82 L60 78 L58 78 Q55 78 55 75 L55 68 Q55 65 58 65 Z" 
        fill="#FFFFFF" opacity="0.9"/>
  <circle cx="62" cy="71.5" r="1.5" fill="#0066CC"/>
  <circle cx="67" cy="71.5" r="1.5" fill="#0066CC"/>
  <circle cx="72" cy="71.5" r="1.5" fill="#0066CC"/>
  
  <!-- Text -->
  <text x="50" y="92" font-family="Arial, sans-serif" font-size="8" font-weight="bold" 
        text-anchor="middle" fill="#FFFFFF">UBWIYUNGE</text>
</svg>
